HIERARCHY
ROOT Hips
{
  OFFSET -354.97 84.371 -150.031
  CHANNELS 6 Xposition Yposition Zposition Zrotation Xrotation Yrotation
  JOINT RightUpLeg
  {
    OFFSET -8.9458 -8.66707 0.101652
    CHANNELS 3 Zrotation Xrotation Yrotation
    JOINT RightLeg
    {
      OFFSET 0 -44.4227 1.3727
      CHANNELS 3 Zrotation Xrotation Yrotation
      JOINT RightFoot
      {
        OFFSET 0.253549 -42.0924 -1.46059
        CHANNELS 3 Zrotation Xrotation Yrotation
        JOINT RightToes
        {
          OFFSET 0.04 -4.41509 8.4991
          CHANNELS 3 Zrotation Xrotation Yrotation
          End Site
          {
            OFFSET -0.08 -0.137448 9.77979
          }
        }
      }
    }
  }
  JOINT Spine
  {
    OFFSET 0 11.8905 0
    CHANNELS 3 Zrotation Xrotation Yrotation
    JOINT Spine1
    {
      OFFSET 0 25.6574 0.127663
      CHANNELS 3 Zrotation Xrotation Yrotation
      JOINT HEad
      {
        OFFSET 0 8.73416 0.011341
        CHANNELS 3 Zrotation Xrotation Yrotation
        End Site
        {
          OFFSET -0.29 12.7742 2.51395
        }
      }
      JOINT LeftShoulder1
      {
        OFFSET 8.99 -0.362252 -0.22
        CHANNELS 3 Zrotation Xrotation Yrotation
        JOINT LeftArm
        {
          OFFSET 10.2827 -0.00338 0.322123
          CHANNELS 3 Zrotation Xrotation Yrotation
          JOINT LeftForeArm
          {
            OFFSET 32.7669 0.099144 -1.42434
            CHANNELS 3 Zrotation Xrotation Yrotation
            JOINT LeftHand
            {
              OFFSET 27.5643 0.085362 1.02216
              CHANNELS 3 Zrotation Xrotation Yrotation
              End Site
              {
                OFFSET 16.7443 -0.6 1.50291
              }
            }
          }
        }
      }
      JOINT RightShoulder
      {
        OFFSET -8.99 -0.362252 -0.22
        CHANNELS 3 Zrotation Xrotation Yrotation
        JOINT RightArm
        {
          OFFSET -10.2827 -0.00338 0.322123
          CHANNELS 3 Zrotation Xrotation Yrotation
          JOINT RightForeArm
          {
            OFFSET -32.8971 0.099144 -1.42434
            CHANNELS 3 Zrotation Xrotation Yrotation
            JOINT RightHand
            {
              OFFSET -27.4921 0.085362 1.02216
              CHANNELS 3 Zrotation Xrotation Yrotation
              End Site
              {
                OFFSET -16.6312 -0.6 1.50291
              }
            }
          }
        }
      }
    }
  }
  JOINT LeftUpLeg
  {
    OFFSET 8.9458 -8.66707 0.101652
    CHANNELS 3 Zrotation Xrotation Yrotation
    JOINT LeftLeg
    {
      OFFSET 0 -44.4227 1.3727
      CHANNELS 3 Zrotation Xrotation Yrotation
      JOINT LeftFoot
      {
        OFFSET -0.253549 -42.0924 -1.46059
        CHANNELS 3 Zrotation Xrotation Yrotation
        JOINT LeftToes
        {
          OFFSET -0.04 -4.41509 8.4991
          CHANNELS 3 Zrotation Xrotation Yrotation
          End Site
          {
            OFFSET 0.08 -0.047448 9.77979
          }
        }
      }
    }
  }
}
MOTION
Frames:	17
Frame Time:	0.0166667
-354.862 91.1892 -150.366 2.38747 -0.580537 60.3815 -11.7235 0.292442 5.1082 -1.32558 40.5134 1.7672 23.3125 -0.0686829 0.50116 0.0462048 0.000533403 0.662642 6.00489 0.857965 -10.2879 -9.29779e-006 0.0174486 0.0332507 -24.1246 21.7694 50.013 -6.62086e-032 -3.97569e-016 -9.54166e-015 98.1109 -69.3587 135.281 -106.435 53.6499 -32.3445 5.50905 20.5451 -0.826411 36.0759 8.97146 17.0593 51.7853 -20.8662 58.6344 39.0911 63.1768 78.7668 -2.08064 6.41739 2.8373 7.65016 -36.0009 6.00562 5.11871 45.1709 -14.1486 -16.2595 -2.14183 -0.986075 -1.18447e-009 1.5602e-007 -4.87132e-009 
-354.514 90.4993 -150.261 2.13311 -0.531238 59.7235 -10.5187 0.149151 6.01414 -4.90702 40.7566 4.86411 28.2501 -0.0705343 0.710449 0.0462048 0.000533403 0.662642 7.07796 -1.50138 -11.2143 0.00203064 0.0178487 0.0305807 -24.0902 23.9202 52.6265 -7.95139e-016 -3.97569e-016 -0 86.9935 -67.5056 125.451 -106.963 54.3275 -32.925 5.53898 20.1355 -1.48396 35.5949 11.238 17.3017 50.7868 -20.337 58.5501 34.1712 62.3714 83.304 -2.89958 7.19089 2.5472 8.50177 -37.0009 7.54621 10.1458 46.6217 -18.0575 -26.1015 -1.22084 -1.37704 -1.18446e-009 1.5602e-007 -4.87132e-009 
-354.249 89.7227 -150.122 2.18476 -0.610618 59.0939 -9.70147 0.157254 6.95692 -7.81886 41.3873 7.16439 32.9264 -0.0473972 0.896808 0.0462048 0.000533403 0.662642 9.10437 -3.59811 -10.7814 0.0837816 0.0181069 0.0955487 -23.5177 26.9323 51.8516 -7.95139e-016 -1.59028e-015 3.18055e-015 76.5418 -66.5442 117.285 -107.617 54.9503 -33.3081 5.42844 20.0879 -1.30711 34.3042 12.6092 16.4624 49.8048 -19.5279 58.5182 31.8408 61.4576 85.4527 -2.64507 5.64303 2.89878 9.27907 -37.5891 8.80454 13.6586 47.7778 -20.5725 -35.1167 -0.491557 -1.52302 -1.18446e-009 1.5602e-007 -4.87131e-009 
-354.141 89.1178 -149.951 2.49766 -0.817198 58.5007 -9.23195 0.483413 7.87514 -9.92643 41.7555 8.52892 37.2723 0.417338 0.896004 0.0462048 0.000533403 0.662642 10.9524 -5.10727 -10.1233 -0.00507001 0.0183081 0.0210309 -22.6451 29.5803 50.6264 1.59028e-015 1.59028e-015 -6.36111e-015 68.0628 -65.418 110.66 -108.345 55.5001 -33.57 5.58251 19.7782 -1.88497 33.3983 13.7754 15.718 48.947 -18.6239 58.6058 31.0709 60.5428 86.1611 -3.51856 7.34055 2.68946 10.277 -38.4368 9.36415 13.047 50.6575 -19.9824 -31.6054 -0.808113 -1.30578 -1.18446e-009 1.5602e-007 -4.87132e-009 
-354.099 88.4666 -149.796 3.03065 -1.13235 57.9605 -9.08096 0.874975 8.76592 -11.4268 42.4645 9.27608 41.4015 0.891984 0.84277 0.0462048 0.000533403 0.662642 12.6108 -6.08184 -9.32826 -0.00948974 0.0184742 0.013661 -21.6261 31.9016 48.8482 7.95139e-016 2.38542e-015 6.36111e-015 60.8535 -64.4945 105.139 -109.068 55.9745 -33.7668 5.65198 19.668 -1.9593 32.6113 14.6938 14.9098 48.2816 -17.7315 58.8257 31.1826 59.6869 86.0663 -3.62407 7.36751 2.81384 11.2498 -39.0054 9.76547 12.2529 53.2699 -18.9304 -28.23 -0.981316 -1.18809 -1.18447e-009 1.5602e-007 -4.87132e-009 
-354.118 87.7843 -149.689 3.74254 -1.53198 57.4925 -9.21871 1.29445 9.60744 -12.4043 43.4679 9.54239 45.3596 1.36126 0.740317 0.0462048 0.000533403 0.662642 14.0684 -6.5817 -8.46055 -0.0106387 0.0186273 0.0116713 -20.4285 33.8332 46.6799 -1.59028e-015 -1.59028e-015 3.18055e-015 54.7017 -63.8377 100.471 -109.715 56.3832 -33.9649 5.85192 19.4134 -2.4582 31.9432 15.4314 14.1252 47.8537 -16.9226 59.1611 31.769 58.9008 85.5237 -4.24466 9.02912 2.59177 12.1735 -39.338 9.99957 11.2363 55.674 -17.4892 -24.9566 -1.12269 -1.06857 -1.18446e-009 1.5602e-007 -4.87131e-009 
-354.195 87.0839 -149.639 4.59065 -1.99339 57.1134 -9.60829 1.71448 10.3831 -12.9228 44.7089 9.43248 49.1818 1.81194 0.593041 0.0462048 0.000533403 0.662642 15.3147 -6.66722 -7.56722 -0.0108599 0.0187896 0.0102511 -19.0921 35.3572 44.2332 -1.59028e-015 -2.38542e-015 -0 49.3119 -63.5332 96.4034 -110.223 56.7525 -34.201 5.96493 19.2795 -2.61145 31.3278 16.0096 13.3872 47.6922 -16.2274 59.5896 32.589 58.2067 84.755 -4.34331 9.55858 2.54775 13.0144 -39.4871 10.0539 9.96336 57.8871 -15.6895 -21.7633 -1.23653 -0.942729 -1.18446e-009 1.5602e-007 -4.87131e-009 
-354.324 86.3788 -149.643 5.53093 -2.49792 56.8329 -10.2071 2.12273 11.0832 -13.0269 46.1223 9.01799 52.8902 2.23402 0.405627 0.0462048 0.000533403 0.662642 16.3442 -6.39598 -6.67805 -0.0115699 0.0189496 0.00907109 -17.6712 36.4769 41.6161 3.18055e-015 4.77083e-015 -0 44.3903 -63.6222 92.6839 -110.546 57.1185 -34.5176 6.1164 19.0761 -2.97136 30.7007 16.4398 12.716 47.8121 -15.6569 60.0921 33.5191 57.6035 83.8654 -4.67561 10.9079 2.31247 13.7473 -39.5043 9.92298 8.43513 59.9028 -13.5689 -18.6437 -1.32387 -0.810699 -1.18446e-009 1.5602e-007 -4.87131e-009 
-354.506 85.6811 -149.709 6.52744 -3.03664 56.6554 -10.9735 2.51616 11.7029 -12.7525 47.6401 8.35256 56.5051 2.61866 0.183019 0.0462048 0.000533403 0.662642 17.4578 -5.00884 -4.74224 0.00550213 0.0852662 0.0885735 -15.473 36.6506 37.2763 7.95139e-016 -2.38542e-015 -0 38.7568 -65.5232 88.3385 -110.623 57.5196 -34.9494 6.18352 18.9602 -3.07901 29.9535 15.3995 11.4541 48.2132 -15.1077 60.694 34.4375 57.1411 82.9984 -4.6921 11.5203 2.17606 14.3515 -39.4313 9.60154 6.67193 61.7096 -11.1633 -15.5942 -1.38695 -0.676622 -1.18446e-009 1.5602e-007 -4.87132e-009 
-354.729 85.0057 -149.84 7.54268 -3.59676 56.5749 -11.8713 2.893 12.2436 -12.1329 49.1798 7.47456 60.0437 2.96408 -0.0694185 0.0462048 0.000533403 0.662642 18.2799 -3.49906 -3.03927 -0.0151801 0.01365 0.000760954 -13.5608 36.5941 33.5098 -3.18055e-015 0 1.27222e-014 32.7859 -67.2614 83.0944 -110.362 58.1126 -34.9029 6.21876 18.7335 -3.2615 29.1428 14.6658 10.4152 48.8783 -14.6612 61.3147 35.3618 56.7997 82.1508 -4.83886 12.5529 1.93048 14.8134 -39.3098 9.09584 4.6933 63.2954 -8.49424 -12.6061 -1.42898 -0.543071 -1.18446e-009 1.5602e-007 -4.87131e-009 
-354.97 84.371 -150.031 8.53516 -4.16182 56.5762 -12.8719 3.25668 12.7097 -11.2019 50.6448 6.41344 63.5186 3.26693 -0.345756 0.0462048 0.000533403 0.662642 18.8237 -1.91935 -1.54766 -0.0159902 0.0103502 -0.00523917 -11.8097 36.25 29.9997 -6.36111e-015 -1.59028e-015 -0 25.9158 -69.0437 76.8322 -109.801 58.7963 -35.0892 6.17979 18.6003 -3.25736 28.2587 13.9292 9.46505 49.7542 -14.298 61.9516 36.3024 56.5566 81.3234 -4.81383 13.1345 1.74029 15.1343 -39.1698 8.4259 2.51616 64.6399 -5.57856 -9.66967 -1.45295 -0.411682 -1.18446e-009 1.5602e-007 -4.87131e-009 
-355.255 83.8378 -150.248 9.45543 -4.71539 56.6422 -13.9066 3.6069 13.0846 -9.98332 51.891 5.14476 66.9015 3.56379 -0.680702 0.0462048 0.000533403 0.662642 19.1082 -0.316323 -0.232581 -0.0162303 0.0106103 -0.00588915 -10.2671 35.7208 26.8656 -1.59028e-015 3.18055e-015 6.36111e-015 18.0163 -70.6356 69.3637 -108.915 59.5648 -35.5617 6.11121 18.5235 -3.2695 27.3437 13.2517 8.62526 50.769 -14.0049 62.5887 37.2684 56.3821 80.5147 -4.86421 13.9565 1.49202 15.1506 -38.9426 7.45331 3.6971 64.7745 -4.57587 -8.53828 -1.50982 -0.400942 -1.18446e-009 1.5602e-007 -4.87131e-009 
-355.529 83.3531 -150.512 10.2711 -5.24441 56.7489 -14.979 3.95338 13.3925 -8.54713 52.8995 3.75987 70.2296 3.79278 -1.00978 0.0462048 0.000533403 0.662642 18.6517 2.36217 1.5775 -0.053819 0.0982783 0.0414055 -7.82704 33.9791 23.0847 -1.32417e-031 2.38542e-015 3.18055e-015 8.20618 -73.1443 59.1474 -107.74 60.3856 -36.3236 5.97764 18.5734 -3.12758 26.9967 11.2476 7.68692 51.8157 -13.691 63.2108 38.2024 56.3135 79.8388 -4.82752 14.5386 1.25653 14.862 -38.7138 6.26663 3.38411 65.1543 -2.32848 -6.83056 -1.57904 -0.332297 -1.18446e-009 1.5602e-007 -4.87132e-009 
-355.841 82.9876 -150.788 10.9434 -5.73504 56.8689 -16.0151 4.29152 13.6109 -6.93657 53.5237 2.23599 73.4588 4.01428 -1.38784 0.0462048 0.000533403 0.662642 18.0293 4.77306 3.20311 -0.0137204 0.00341048 -0.0109995 -5.98164 32.457 20.0455 6.36111e-015 -3.18055e-015 -0 -3.09342 -74.6633 47.2221 -106.298 61.1657 -37.3101 5.80385 18.7452 -2.95769 26.4961 9.65065 6.80542 52.8486 -13.4275 63.7501 39.1366 56.2987 79.2502 -4.84798 15.2876 0.962329 14.2071 -38.3919 4.80095 5.89357 64.4132 -2.26247 -6.59687 -1.67636 -0.342485 -1.18446e-009 1.5602e-007 -4.87132e-009 
-356.093 82.6872 -151.096 11.4328 -6.17273 56.9661 -17.0368 4.62404 13.7664 -5.25063 53.7623 0.710521 76.6347 4.17005 -1.74724 0.0462048 0.000533403 0.662642 17.2558 6.8949 4.66951 -0.0103305 -0.00141936 -0.0147898 -4.41229 30.9514 17.4655 3.18055e-015 -3.18055e-015 -3.18055e-015 -14.6809 -75.5644 34.5101 -104.635 61.7744 -38.3731 5.58629 19.0878 -2.67001 26.0036 8.09383 5.90862 53.803 -13.1682 64.2245 40.0629 56.2973 78.742 -4.82339 15.924 0.642509 13.3509 -38.0608 3.23012 6.58303 64.1254 -0.735256 -5.68915 -1.78968 -0.317545 -1.18447e-009 1.5602e-007 -4.87132e-009 
-356.323 82.526 -151.4 11.7042 -6.53992 57.0056 -17.9857 4.94343 13.8322 -3.5815 53.4871 -0.795708 79.719 4.32585 -2.16275 0.0462048 0.000533403 0.662642 15.9306 8.73768 5.88142 -0.00501048 -0.00227938 -0.01435 -2.82324 29.4835 15.5615 -4.77083e-015 -1.59028e-015 -0 -24.1229 -76.2165 22.9641 -102.796 62.0882 -39.3385 5.36384 19.6156 -2.38019 25.8796 6.6326 5.15128 54.6274 -12.9098 64.6272 40.9701 56.2843 78.3276 -4.82046 16.6709 0.274638 12.2583 -37.6352 1.52341 9.7364 62.7819 -1.96083 -6.10282 -1.94098 -0.33263 -1.18447e-009 1.5602e-007 -4.87131e-009 
-356.506 82.5208 -151.654 11.7354 -6.82226 56.9484 -18.8281 5.26695 13.8114 -2.03484 52.6613 -2.21324 82.6952 4.47969 -2.63324 0.0462048 0.000533403 0.662642 14.1693 10.2788 6.80431 1.95406e-005 -0.00309942 -0.0135601 -1.30521 28.0779 14.3804 1.59028e-015 7.95139e-016 -0 -31.1419 -77.1097 12.8561 -100.681 62.0123 -40.1273 5.15554 20.3571 -2.07358 26.0265 5.26848 4.54904 55.2949 -12.6527 64.9693 41.8437 56.248 78.0195 -4.7786 17.3533 -0.107347 11.4631 -36.3557 -0.735271 11.8398 60.1784 -2.88973 -7.38047 -2.2529 -0.386005 -1.18447e-009 1.5602e-007 -4.87132e-009 
